<?xml version="1.0" standalone="no"?>
<!DOCTYPE svg PUBLIC "-//W3C//DTD SVG 20010904//EN"
 "http://www.w3.org/TR/2001/REC-SVG-20010904/DTD/svg10.dtd">
<svg version="1.0" xmlns="http://www.w3.org/2000/svg"
 width="225.000000pt" height="225.000000pt" viewBox="0 0 225.000000 225.000000"
 preserveAspectRatio="xMidYMid meet">

<g transform="translate(0.000000,225.000000) scale(0.100000,-0.100000)"
fill="#000000" stroke="none">
<path d="M520 2045 c-171 -42 -322 -161 -399 -314 -50 -97 -65 -165 -65 -281
0 -90 5 -117 30 -190 17 -47 47 -110 67 -140 20 -30 238 -256 484 -502 440
-439 449 -448 488 -448 39 0 48 9 488 448 246 246 464 472 484 502 20 30 50
93 67 140 25 73 30 100 30 190 0 158 -42 277 -142 397 -214 256 -620 284 -869
59 l-58 -53 -58 52 c-68 62 -175 118 -267 139 -79 19 -205 19 -280 1z m204
-175 c99 -16 175 -59 274 -154 80 -77 93 -86 127 -86 33 0 47 9 128 87 62 58
111 95 153 115 175 82 359 46 492 -96 84 -91 106 -149 107 -286 0 -98 -2 -109
-33 -175 -31 -65 -64 -100 -440 -478 l-407 -408 -411 413 c-482 485 -469 467
-469 648 1 137 23 195 107 286 67 71 152 120 234 133 69 12 72 12 138 1z"/>
</g>
</svg>
